<mxfile host="app.diagrams.net" agent="Mozilla/5.0 (X11; Linux x86_64; rv:129.0) Gecko/20100101 Firefox/129.0" version="24.7.16">
  <diagram name="Page-1" id="e7e014a7-5840-1c2e-5031-d8a46d1fe8dd">
    <mxGraphModel dx="3354" dy="1901" grid="1" gridSize="10" guides="1" tooltips="1" connect="1" arrows="1" fold="1" page="1" pageScale="1" pageWidth="1920" pageHeight="1200" background="none" math="0" shadow="0">
      <root>
        <mxCell id="0" />
        <mxCell id="1" parent="0" />
        <mxCell id="2" value="Investor    " style="swimlane;whiteSpace=wrap" parent="1" vertex="1">
          <mxGeometry x="164.5" y="128" width="705.5" height="1262" as="geometry" />
        </mxCell>
        <mxCell id="5" value="" style="ellipse;shape=startState;fillColor=#000000;strokeColor=#ff0000;" parent="2" vertex="1">
          <mxGeometry x="100" y="40" width="30" height="30" as="geometry" />
        </mxCell>
        <mxCell id="VlkPv9jspcL5AIq_9kxq-46" value="Login using crypto wallet" style="" vertex="1" parent="2">
          <mxGeometry x="55.5" y="102" width="180" height="68" as="geometry" />
        </mxCell>
        <mxCell id="VlkPv9jspcL5AIq_9kxq-47" value="Setup nickname" style="" vertex="1" parent="2">
          <mxGeometry x="55.5" y="202" width="180" height="68" as="geometry" />
        </mxCell>
        <mxCell id="VlkPv9jspcL5AIq_9kxq-48" value="Setup contacts" style="" vertex="1" parent="2">
          <mxGeometry x="55.5" y="292" width="180" height="68" as="geometry" />
        </mxCell>
        <mxCell id="VlkPv9jspcL5AIq_9kxq-49" value="Setup push notifications" style="" vertex="1" parent="2">
          <mxGeometry x="55.5" y="382" width="180" height="68" as="geometry" />
        </mxCell>
        <mxCell id="VlkPv9jspcL5AIq_9kxq-50" value="Search organizers" style="" vertex="1" parent="2">
          <mxGeometry x="55.5" y="472" width="180" height="68" as="geometry" />
        </mxCell>
        <mxCell id="VlkPv9jspcL5AIq_9kxq-51" value="Select organizer" style="" vertex="1" parent="2">
          <mxGeometry x="55.5" y="572" width="180" height="68" as="geometry" />
        </mxCell>
        <mxCell id="VlkPv9jspcL5AIq_9kxq-52" value="Search projects" style="" vertex="1" parent="2">
          <mxGeometry x="55.5" y="662" width="180" height="68" as="geometry" />
        </mxCell>
        <mxCell id="VlkPv9jspcL5AIq_9kxq-53" value="Add project request" style="" vertex="1" parent="2">
          <mxGeometry x="55.5" y="752" width="180" height="68" as="geometry" />
        </mxCell>
        <mxCell id="VlkPv9jspcL5AIq_9kxq-54" value="Chat with organizer" style="" vertex="1" parent="2">
          <mxGeometry x="55.5" y="842" width="180" height="68" as="geometry" />
        </mxCell>
        <mxCell id="VlkPv9jspcL5AIq_9kxq-55" value="Pay organizer" style="" vertex="1" parent="2">
          <mxGeometry x="55.5" y="932" width="180" height="68" as="geometry" />
        </mxCell>
        <mxCell id="VlkPv9jspcL5AIq_9kxq-56" value="Review progress" style="" vertex="1" parent="2">
          <mxGeometry x="55.5" y="1022" width="180" height="68" as="geometry" />
        </mxCell>
        <mxCell id="VlkPv9jspcL5AIq_9kxq-57" value="Rate organizer" style="" vertex="1" parent="2">
          <mxGeometry x="55.5" y="1102" width="180" height="68" as="geometry" />
        </mxCell>
        <mxCell id="VlkPv9jspcL5AIq_9kxq-58" value="Select project" style="" vertex="1" parent="2">
          <mxGeometry x="55.5" y="1182" width="180" height="68" as="geometry" />
        </mxCell>
        <mxCell id="VlkPv9jspcL5AIq_9kxq-59" value="Request additional features" style="" vertex="1" parent="2">
          <mxGeometry x="285.5" y="102" width="180" height="68" as="geometry" />
        </mxCell>
        <mxCell id="3" value="Organizer" style="swimlane;whiteSpace=wrap" parent="1" vertex="1">
          <mxGeometry x="900" y="128" width="570" height="1262" as="geometry" />
        </mxCell>
        <mxCell id="13" value="" style="ellipse;shape=startState;fillColor=#000000;strokeColor=#ff0000;" parent="3" vertex="1">
          <mxGeometry x="60" y="40" width="30" height="30" as="geometry" />
        </mxCell>
        <mxCell id="VlkPv9jspcL5AIq_9kxq-61" value="Request to be added" style="" vertex="1" parent="3">
          <mxGeometry x="50" y="102" width="170" height="68" as="geometry" />
        </mxCell>
        <mxCell id="VlkPv9jspcL5AIq_9kxq-62" value="Add description" style="" vertex="1" parent="3">
          <mxGeometry x="50" y="192" width="170" height="68" as="geometry" />
        </mxCell>
        <mxCell id="VlkPv9jspcL5AIq_9kxq-63" value="Add project" style="" vertex="1" parent="3">
          <mxGeometry x="50" y="282" width="170" height="68" as="geometry" />
        </mxCell>
        <mxCell id="VlkPv9jspcL5AIq_9kxq-64" value="Chat with investors" style="" vertex="1" parent="3">
          <mxGeometry x="50" y="372" width="170" height="68" as="geometry" />
        </mxCell>
        <mxCell id="VlkPv9jspcL5AIq_9kxq-65" value="Update project progress" style="" vertex="1" parent="3">
          <mxGeometry x="50" y="462" width="170" height="68" as="geometry" />
        </mxCell>
        <mxCell id="VlkPv9jspcL5AIq_9kxq-66" value="Update project features" style="" vertex="1" parent="3">
          <mxGeometry x="50" y="552" width="170" height="68" as="geometry" />
        </mxCell>
        <mxCell id="VlkPv9jspcL5AIq_9kxq-67" value="Onboard laborers" style="" vertex="1" parent="3">
          <mxGeometry x="50" y="642" width="170" height="68" as="geometry" />
        </mxCell>
        <mxCell id="VlkPv9jspcL5AIq_9kxq-68" value="Manage laborer time sheet" style="" vertex="1" parent="3">
          <mxGeometry x="50" y="732" width="170" height="68" as="geometry" />
        </mxCell>
        <mxCell id="VlkPv9jspcL5AIq_9kxq-69" value="Accept payment for project" style="" vertex="1" parent="3">
          <mxGeometry x="50" y="822" width="170" height="68" as="geometry" />
        </mxCell>
        <mxCell id="VlkPv9jspcL5AIq_9kxq-70" value="Set project as finished" style="" vertex="1" parent="3">
          <mxGeometry x="50" y="912" width="170" height="68" as="geometry" />
        </mxCell>
        <mxCell id="VlkPv9jspcL5AIq_9kxq-71" value="Scrap project" style="" vertex="1" parent="3">
          <mxGeometry x="50" y="992" width="170" height="68" as="geometry" />
        </mxCell>
        <mxCell id="4" value="Settler" style="swimlane;whiteSpace=wrap" parent="1" vertex="1">
          <mxGeometry x="1530" y="128" width="805.5" height="1262" as="geometry" />
        </mxCell>
        <mxCell id="VlkPv9jspcL5AIq_9kxq-43" value="" style="ellipse;shape=startState;fillColor=#000000;strokeColor=#ff0000;" vertex="1" parent="4">
          <mxGeometry x="60" y="40" width="30" height="30" as="geometry" />
        </mxCell>
        <mxCell id="VlkPv9jspcL5AIq_9kxq-73" value="Sign up with e-mail" style="" vertex="1" parent="4">
          <mxGeometry x="60" y="92" width="170" height="68" as="geometry" />
        </mxCell>
        <mxCell id="VlkPv9jspcL5AIq_9kxq-74" value="Sign up with phone" style="" vertex="1" parent="4">
          <mxGeometry x="60" y="182" width="170" height="68" as="geometry" />
        </mxCell>
        <mxCell id="VlkPv9jspcL5AIq_9kxq-75" value="Receive work" style="" vertex="1" parent="4">
          <mxGeometry x="60" y="282" width="170" height="68" as="geometry" />
        </mxCell>
        <mxCell id="VlkPv9jspcL5AIq_9kxq-76" value="Look up time sheet" style="" vertex="1" parent="4">
          <mxGeometry x="60" y="372" width="170" height="68" as="geometry" />
        </mxCell>
        <mxCell id="VlkPv9jspcL5AIq_9kxq-77" value="Set preferred payment method" style="" vertex="1" parent="4">
          <mxGeometry x="60" y="462" width="170" height="68" as="geometry" />
        </mxCell>
        <mxCell id="VlkPv9jspcL5AIq_9kxq-78" value="Delete account" style="" vertex="1" parent="4">
          <mxGeometry x="60" y="552" width="170" height="68" as="geometry" />
        </mxCell>
        <mxCell id="VlkPv9jspcL5AIq_9kxq-41" value="post command" style="" vertex="1" parent="1">
          <mxGeometry x="60" y="1680" width="110" height="50" as="geometry" />
        </mxCell>
        <mxCell id="VlkPv9jspcL5AIq_9kxq-42" value="" style="endArrow=open;strokeColor=#FF0000;endFill=1;rounded=0" edge="1" parent="1">
          <mxGeometry relative="1" as="geometry">
            <mxPoint x="220" y="1704.5" as="sourcePoint" />
            <mxPoint x="350.5" y="1704.5" as="targetPoint" />
          </mxGeometry>
        </mxCell>
      </root>
    </mxGraphModel>
  </diagram>
</mxfile>
